<svg version="1" xmlns="http://www.w3.org/2000/svg" width="346.667" height="346.667" viewBox="0 0 260.000000 260.000000"><path d="M115.8 1C80.5 5.1 47.7 23.8 26.6 52 11.6 72 3.5 93.1 1 118.7c-3 29.7 6.2 63.2 23.9 87.3l4.8 6.5 46.6-.3 46.7-.2v-47H92.2c-34.5 0-35.2-.1-35.2-6.5s.7-6.5 35.2-6.5H123v-42H91.6c-34.5 0-34.6 0-34.6-6 0-3.6 2.1-5.7 6.3-6.5 1.8-.3 33.4-.5 70.3-.3 64.4.3 67.3.4 69.3 2.2 2.6 2.4 2.7 6.7.3 8.9-1.6 1.5-5.5 1.7-33.5 1.7H138v42h30.8c29.4 0 31 .1 32.7 2 2.2 2.5 2.2 6.5 0 9-1.7 1.9-3.3 2-32.7 2H138v47h92.6l4.6-6.3c17.7-24.2 26.8-57.3 23.8-87-5-50.6-35.3-90.8-82.5-109.6-17.6-7-41.9-10.2-60.7-8.1zm23.1 13c2.9 1.3 11.3 8.8 25.5 22.7 26.2 25.7 43.9 39.6 66.9 52.2 4.2 2.3 8.2 5.1 8.8 6.2 2.8 5.2-2.8 12.5-8.9 11.5-10.8-1.7-46.9-30.3-76.7-60.7C136.8 27.8 134.7 26 130.8 26c-4.9 0-7.8 2.2-16.7 12.9-26 31.5-69.2 69.7-84.8 75.2-4.1 1.4-9-1-9.9-4.8-1.2-4.7.7-7.5 7.6-11.3 22.6-12.4 53.1-39.2 73.5-64.5 10.6-13.2 16.3-18.9 20.5-20.2 5.6-1.8 13-1.5 17.9.7zM44.5 227.6c42.6 36.1 102.2 42.1 149.1 15.2 8.4-4.8 22.7-14.9 24-16.9.3-.5-34.5-.9-87.8-.9l-88.3.1 3 2.5z"/></svg>